<?xml version="1.0" standalone="no"?>
<!DOCTYPE svg PUBLIC "-//W3C//DTD SVG 20010904//EN"
 "http://www.w3.org/TR/2001/REC-SVG-20010904/DTD/svg10.dtd">
<svg version="1.0" xmlns="http://www.w3.org/2000/svg"
 width="1280.000000pt" height="1280.000000pt" viewBox="0 0 1280.000000 1280.000000"
 preserveAspectRatio="xMidYMid meet">
<g transform="translate(0.000000,1280.000000) scale(0.100000,-0.100000)"
fill="#000000" stroke="none">
<path d="M6320 12789 c-207 -63 -385 -398 -455 -859 -22 -142 -30 -475 -16
-626 15 -166 44 -331 78 -439 25 -82 28 -108 33 -289 3 -128 1 -200 -5 -201
-5 -2 -89 -15 -185 -30 -628 -97 -1235 -353 -1759 -742 l-114 -85 -119 119
c-96 95 -128 134 -165 203 -255 473 -765 938 -1208 1103 -150 56 -315 76 -411
49 -54 -16 -117 -59 -149 -102 -91 -123 -67 -368 60 -622 210 -421 617 -838
1045 -1071 69 -37 108 -70 209 -171 l124 -124 -85 -113 c-402 -536 -658 -1158
-756 -1839 l-17 -115 -164 -3 c-142 -2 -173 0 -225 17 -101 33 -219 60 -359
83 -180 29 -592 32 -767 5 -472 -74 -773 -219 -881 -427 -34 -64 -33 -166 1
-235 87 -174 380 -328 751 -395 390 -70 915 -42 1217 64 31 11 92 16 234 16
l192 2 23 -149 c100 -658 350 -1261 743 -1792 l92 -124 -119 -119 c-95 -96
-134 -128 -203 -165 -473 -255 -938 -765 -1103 -1208 -56 -150 -76 -315 -49
-411 50 -177 230 -244 485 -180 452 115 1024 611 1310 1136 37 69 70 108 171
209 l124 124 113 -85 c536 -402 1158 -658 1839 -756 l115 -17 3 -164 c2 -142
0 -173 -17 -225 -33 -101 -60 -219 -83 -359 -29 -180 -32 -592 -5 -767 50
-321 132 -558 251 -724 51 -71 107 -121 176 -157 64 -34 166 -33 235 1 174 87
328 380 395 751 70 390 42 915 -64 1217 -11 31 -16 92 -17 235 l-1 192 24 3
c722 94 1361 348 1927 769 l114 85 119 -119 c96 -95 128 -134 165 -203 255
-473 765 -938 1208 -1103 150 -56 315 -76 411 -49 54 16 117 59 149 102 91
123 67 368 -60 622 -210 421 -617 838 -1045 1071 -69 37 -108 70 -209 171
l-124 124 85 113 c402 536 658 1158 756 1839 l17 115 164 3 c142 2 173 0 225
-17 101 -33 219 -60 359 -83 180 -29 592 -32 767 -5 472 74 773 219 881 427
34 64 33 166 -1 235 -87 174 -380 328 -751 395 -390 70 -915 42 -1217 -64 -31
-11 -92 -16 -234 -16 l-192 -2 -23 149 c-100 658 -350 1261 -743 1792 l-92
124 119 119 c95 96 134 128 203 165 473 255 938 765 1103 1208 56 150 76 315
49 411 -50 177 -230 244 -485 180 -452 -115 -1024 -611 -1310 -1136 -37 -69
-70 -108 -171 -209 l-124 -124 -113 85 c-536 402 -1158 658 -1839 756 l-115
17 -3 164 c-2 142 0 173 17 225 33 101 60 219 83 359 29 180 32 592 5 767 -73
468 -221 774 -424 880 -49 25 -142 34 -193 19z m435 -2630 c854 -75 1684 -464
2301 -1076 631 -626 1010 -1421 1105 -2318 19 -173 16 -606 -5 -780 -63 -539
-220 -1016 -484 -1480 -261 -457 -662 -894 -1111 -1209 -374 -262 -809 -460
-1256 -570 -520 -128 -1062 -143 -1607 -45 -1139 205 -2154 971 -2681 2025
-193 385 -309 768 -374 1234 -25 180 -25 732 0 910 78 556 232 1013 493 1458
639 1089 1773 1784 3038 1862 146 9 413 4 581 -11z"/>
<path d="M6225 10029 c-1164 -50 -2241 -669 -2880 -1654 -261 -402 -436 -841
-524 -1310 -70 -377 -79 -810 -25 -1185 187 -1293 1049 -2386 2264 -2868 288
-115 566 -184 930 -234 153 -20 683 -17 850 5 654 89 1218 315 1726 692 789
586 1312 1474 1438 2441 95 725 -30 1467 -356 2118 -363 723 -997 1334 -1735
1671 -409 186 -878 303 -1288 320 -66 3 -147 7 -180 8 -33 2 -132 0 -220 -4z
m-265 -1493 l0 -684 -67 -23 c-38 -12 -100 -37 -139 -56 -39 -18 -75 -33 -80
-33 -13 0 -954 943 -954 955 1 5 35 33 78 62 336 225 670 362 1087 447 39 8
71 14 73 15 1 1 2 -307 2 -683z m992 659 c393 -83 776 -245 1064 -450 l66 -48
-480 -480 -481 -481 -78 37 c-43 20 -107 47 -143 59 l-65 23 -3 678 -2 677 24
0 c14 0 58 -7 98 -15z m-1924 -2139 c-17 -34 -44 -97 -59 -141 l-28 -80 -681
-3 c-396 -1 -680 2 -680 7 0 20 33 181 51 251 91 342 202 594 392 883 l71 108
482 -482 483 -482 -31 -61z m3757 901 c214 -328 358 -695 429 -1095 l6 -32
-681 2 -681 3 -28 75 c-15 41 -41 106 -59 145 l-32 69 478 478 c263 263 480
478 483 478 3 0 41 -55 85 -123z m-2205 -422 c485 -79 871 -459 954 -940 98
-562 -230 -1114 -770 -1294 -574 -191 -1189 86 -1429 645 -236 549 0 1201 533
1472 115 59 190 85 297 106 44 8 89 17 100 19 48 11 228 6 315 -8z m-1618
-1640 c11 -33 37 -97 58 -141 l38 -82 -482 -481 -481 -481 -72 108 c-176 264
-306 553 -387 862 -22 86 -56 249 -56 271 0 5 284 8 681 7 l680 -3 21 -60z
m4254 43 c-3 -13 -13 -61 -22 -108 -60 -311 -202 -670 -370 -935 -100 -157
-118 -185 -124 -185 -3 0 -221 216 -484 479 l-480 480 42 88 c22 48 49 114 59
145 l18 58 683 0 682 0 -4 -22z m-3468 -917 c31 -16 92 -41 135 -56 l77 -28 0
-679 0 -680 -52 7 c-128 18 -378 87 -558 156 -184 70 -630 321 -630 354 0 15
943 955 958 955 7 0 38 -13 70 -29z m1855 -449 l479 -479 -64 -45 c-249 -177
-593 -335 -900 -413 -106 -27 -243 -55 -270 -55 -17 0 -18 39 -18 678 l0 678
68 22 c37 13 99 38 137 56 39 19 75 35 80 35 6 1 225 -214 488 -477z"/>
<path d="M6287 7369 c-526 -56 -916 -536 -866 -1068 21 -228 107 -415 269
-585 462 -485 1249 -378 1574 215 139 254 153 576 36 850 -111 262 -351 474
-624 554 -72 20 -261 48 -300 44 -6 -1 -46 -5 -89 -10z"/>
</g>
</svg>
